<svg id="Layer_1" enable-background="new 0 0 128 128" height="512" viewBox="0 0 128 128" width="512" xmlns="http://www.w3.org/2000/svg"><path d="m88.9 29.7c-.2 0-.4 0-.5 0-8.5-.4-16.6-3.9-22.8-9.9-8.4-8-21.8-7.7-29.8.7-3.6 3.8-5.7 8.9-5.8 14.2v.3c.1 6.7-2.7 13.1-7.5 17.7-14.9 13.5-15.9 36.5-2.3 51.3s36.5 15.8 51.3 2.3c4.6-4.2 8.1-9.6 10-15.5.8-2.4 3-4 5.5-4 15.8 0 28.5-12.8 28.5-28.5.1-15.2-11.6-27.6-26.6-28.6z" fill="#dff3ff"/><circle cx="47.7" cy="78.9" fill="#ffe469" r="17.7"/><g fill="#2f4343"><path d="m117.3 56.2c-1-15.2-13.1-27.3-28.3-28.3-.2 0-.4 0-.6 0-8.1-.4-15.8-3.8-21.6-9.4-4.6-4.4-10.9-6.7-17.3-6.2-1 .1-1.7.9-1.6 1.9s.9 1.7 1.9 1.6c5.4-.4 10.8 1.5 14.7 5.3 6.5 6.2 14.9 9.9 23.9 10.4h.5c14.8.9 26 13.7 25 28.4-1 14.1-12.7 25.1-26.8 25.1-3.3 0-6.2 2.1-7.2 5.2-.3.9.2 1.9 1.1 2.2s1.9-.2 2.2-1.1c.6-1.7 2.1-2.8 3.9-2.8 8.4 0 16.4-3.5 22.1-9.6s8.7-14.3 8.1-22.7z"/><path d="m79.4 95.9c-.8-.5-1.9-.2-2.4.6-9.5 16.6-30.6 22.4-47.2 12.9s-22.3-30.5-12.9-47.1c1.8-3.1 4-5.9 6.7-8.4 5.2-4.9 8.2-11.8 8.1-19v-.2c.1-5.1 2.2-10 5.9-13.6.7-.7.7-1.8 0-2.5s-1.8-.7-2.5 0c-4.4 4.2-6.9 10-7 16v.4c.1 6.2-2.5 12.1-7 16.4-15.4 14.2-16.4 38.2-2.2 53.8 6.8 7.4 16.3 11.9 26.4 12.3h1.7c13.7 0 26.3-7.3 33.1-19.2.4-.8.1-1.9-.7-2.4z"/><path d="m41.7 17.9c.3 0 .5-.1.8-.2.2-.1.4-.2.7-.3.9-.4 1.3-1.4.9-2.3s-1.4-1.3-2.3-.9c-.3.1-.5.3-.8.4-.9.4-1.2 1.5-.8 2.3.3.6.9 1 1.5 1z"/><path d="m28.3 78.9c0 10.7 8.7 19.4 19.4 19.4s19.4-8.7 19.4-19.4-8.7-19.4-19.4-19.4-19.4 8.7-19.4 19.4zm19.4-15.9c8.8 0 15.9 7.1 15.9 15.9s-7.1 15.9-15.9 15.9-15.9-7.1-15.9-15.9 7.1-15.9 15.9-15.9z"/><path d="m46.5 71h.2c.3 0 .6-.1 1-.1 1 0 1.8-.8 1.8-1.8s-.8-1.8-1.8-1.8c-.5 0-.9 0-1.4.1-1 .1-1.6 1-1.5 1.9.1 1 .8 1.7 1.7 1.7z"/><path d="m38 80.6c1 0 1.8-.8 1.8-1.8 0-2.3 1-4.5 2.7-6 .7-.6.8-1.7.2-2.5s-1.7-.8-2.5-.2c-2.5 2.2-3.9 5.3-3.9 8.6-.1 1.1.7 1.9 1.7 1.9z"/><path d="m105.3 58c1 0 1.8-.7 1.8-1.7.5-5.5-1.9-10.9-6.3-14.3-.8-.6-1.9-.5-2.5.3s-.5 1.9.3 2.5c3.5 2.7 5.4 7 5 11.4 0 .9.7 1.7 1.7 1.8z"/><path d="m94.1 42.3c.9.3 1.9-.1 2.3-1 .3-.9-.1-1.9-1-2.3-.6-.2-1.2-.4-1.8-.6-.9-.2-1.9.4-2.1 1.3s.4 1.9 1.3 2.1c.4.1.8.3 1.3.5z"/></g></svg>