<svg id="Capa_1" enable-background="new 0 0 512.201 512.201" height="512" viewBox="0 0 512.201 512.201" width="512" xmlns="http://www.w3.org/2000/svg"><g fill="#596c76"><path d="m185.494 85.808-60-60c-5.858-5.858-5.858-15.355 0-21.213 5.857-5.858 15.355-5.858 21.213 0l60 60c5.858 5.858 5.858 15.355 0 21.213-5.857 5.857-15.355 5.858-21.213 0z"/><path d="m306.933 84.061c-5.748-5.793-5.712-15.148.08-20.896l59.332-58.877c5.793-5.748 15.148-5.713 20.896.08s5.712 15.148-.08 20.896l-59.332 58.877c-5.791 5.747-15.146 5.715-20.896-.08z"/><path d="m331.101 437.201v60c0 8.28-6.72 15-15 15h-120c-8.28 0-15-6.72-15-15v-60c0-8.28 6.72-15 15-15h120c8.28 0 15 6.72 15 15z"/></g><path d="m331.101 437.201v60c0 8.28-6.72 15-15 15h-60v-90h60c8.28 0 15 6.72 15 15z" fill="#465a61"/><path d="m467.101 182.201h-31c-8.284 0-15 6.716-15 15v120c0 8.284 6.716 15 15 15h31c24.813 0 45-20.187 45-45v-60c0-24.813-20.187-45-45-45z" fill="#465a61"/><path d="m76.101 182.201h-31c-24.813 0-45 20.187-45 45v60c0 24.813 20.187 45 45 45h31c8.284 0 15-6.716 15-15v-120c0-8.284-6.716-15-15-15z" fill="#596c76"/><path d="m406.101 62.201h-300c-24.81 0-45 20.19-45 45v300c0 24.81 20.19 45 45 45h300c24.81 0 45-20.19 45-45v-300c0-24.81-20.19-45-45-45z" fill="#4bb9ec"/><path d="m451.101 107.201v300c0 24.81-20.19 45-45 45h-150v-390h150c24.81 0 45 20.19 45 45z" fill="#0095ff"/><path d="m391.101 317.201v60c0 8.28-6.72 15-15 15h-45l-15-44 15-46h45c8.28 0 15 6.72 15 15z" fill="#cdf"/><path d="m181.101 302.201 15 50-15 40h-45c-8.28 0-15-6.72-15-15v-60c0-8.28 6.72-15 15-15z" fill="#d9f2ff"/><path d="m256.101 302.201 15 43-15 47h-75v-90z" fill="#e6ffff"/><path d="m256.101 302.201h75v90h-75z" fill="#d9f2ff"/><path d="m376.101 122.201h-240c-8.28 0-15 6.72-15 15v120c0 8.28 6.72 15 15 15h240c8.28 0 15-6.72 15-15v-120c0-8.28-6.72-15-15-15z" fill="#596c76"/><path d="m391.101 137.201v120c0 8.28-6.72 15-15 15h-120v-150h120c8.28 0 15 6.72 15 15z" fill="#465a61"/><path d="m316.101 212.201h-30c-8.284 0-15-6.716-15-15s6.716-15 15-15h30c8.284 0 15 6.716 15 15s-6.716 15-15 15z" fill="#cdf"/><path d="m226.101 212.201h-30c-8.284 0-15-6.716-15-15s6.716-15 15-15h30c8.284 0 15 6.716 15 15s-6.716 15-15 15z" fill="#d9f2ff"/></svg>