<svg id="Capa_1" enable-background="new 0 0 512 512" height="512" viewBox="0 0 512 512" width="512" xmlns="http://www.w3.org/2000/svg"><path d="m474.5 37.5-90 218.5 90 233.5h30v-452z" fill="#1d54bd"/><path d="m7.5 37.5v452h203.5l6.213 6.213c5.626 5.626 13.257 8.787 21.213 8.787h35.147c7.957 0 15.587-3.161 21.213-8.787l6.214-6.213h173.5v-30l-150-422z" fill="#487ed2"/><path d="m474.5 7.5h-30l-90 432 120-70z" fill="#adeeff"/><path d="m286 7.5c-16.5 0-30 13.5-30 30h-150v402h338.5v-432z" fill="#e0f8ff"/><path d="m226 7.5h-49.25l-30 30-30-30h-79.25v362l218.5 60v-392c0-16.5-13.5-30-30-30z" fill="#fff"/><path d="m146.75 7.5-15 15v257h15l30 30v-302z" fill="#db3916"/><path d="m116.75 7.5v302l30-30v-272z" fill="#fc5a37"/><path d="m474.5 369.5h-30l-30 45 60-15z" fill="#7be3ff"/><path d="m286 369.5c-16.5 0-30 13.5-30 30l-25 15 25 15 188.5-15v-45z" fill="#adeeff"/><path d="m226 369.5h-188.5v30l218.5 30v-30c0-16.5-13.5-30-30-30z" fill="#e0f8ff"/><path d="m474.5 399.5h-30l-30 45 60-15z" fill="#48d9ff"/><path d="m286 399.5c-16.5 0-30 13.5-30 30l-25 15 25 15 188.5-15v-45z" fill="#7be3ff"/><path d="m226 399.5h-188.5v30l218.5 30v-30c0-16.5-13.5-30-30-30z" fill="#adeeff"/><path d="m444.5 429.5-30 15 30 15h30v-30z" fill="#12b5ff"/><path d="m286 429.5c-16.5 0-30 13.5-30 30h188.5v-30z" fill="#48d9ff"/><path d="m226 429.5h-188.5v30h218.5c0-16.5-13.5-30-30-30z" fill="#7be3ff"/><path d="m504.5 30h-22.5v-22.5c0-4.142-3.357-7.5-7.5-7.5h-188.5c-12.253 0-23.152 5.907-30 15.023-6.848-9.116-17.747-15.023-30-15.023h-188.5c-4.143 0-7.5 3.358-7.5 7.5v22.5h-22.5c-4.143 0-7.5 3.358-7.5 7.5v452c0 4.142 3.357 7.5 7.5 7.5h200.394l4.016 4.017c7.083 7.083 16.5 10.983 26.518 10.983h35.146c10.018 0 19.435-3.9 26.518-10.983l4.016-4.017h200.392c4.143 0 7.5-3.358 7.5-7.5v-452c0-4.142-3.357-7.5-7.5-7.5zm-459.5 377h181c12.406 0 22.5 10.093 22.5 22.5-6.272-4.7-14.065-7.5-22.5-7.5h-181zm218.5 22.5c0-12.407 10.094-22.5 22.5-22.5h181v15h-181c-8.435 0-16.228 2.8-22.5 7.5zm203.5-37.5h-181c-8.435 0-16.228 2.8-22.5 7.519 0-12.426 10.094-22.519 22.5-22.519h181zm-218.5 7.519c-6.272-4.719-14.065-7.519-22.5-7.519h-181v-15h181c12.406 0 22.5 10.093 22.5 22.519zm-203.5 37.481h181c9.777 0 18.114 6.271 21.21 15h-202.21zm241 0h181v15h-202.21c3.096-8.729 11.433-15 21.21-15zm-161.75-422h45v276.394l-17.196-17.197c-2.93-2.929-7.678-2.929-10.607 0l-17.196 17.197v-276.394zm-79.25 0h64.25v294.5c0 3.033 1.827 5.768 4.63 6.929 2.804 1.161 6.028.518 8.174-1.626l24.696-24.697 24.696 24.697c1.436 1.435 3.354 2.197 5.306 2.197.966 0 1.94-.187 2.868-.571 2.803-1.161 4.63-3.896 4.63-6.929v-294.5h41.75c12.406 0 22.5 10.093 22.5 22.5v151c0 4.142 3.357 7.5 7.5 7.5s7.5-3.358 7.5-7.5v-151c0-12.407 10.094-22.5 22.5-22.5h181v347h-181c-8.435 0-16.228 2.8-22.5 7.519v-151.019c0-4.142-3.357-7.5-7.5-7.5s-7.5 3.358-7.5 7.5v151.019c-6.272-4.719-14.065-7.519-22.5-7.519h-181zm452 467h-196c-1.989 0-3.897.79-5.304 2.197l-6.213 6.213c-4.249 4.25-9.899 6.59-15.91 6.59h-35.146c-6.011 0-11.661-2.34-15.91-6.59l-6.213-6.213c-1.407-1.407-3.315-2.197-5.304-2.197h-196v-437h15v414.5c0 4.142 3.357 7.5 7.5 7.5h437c4.143 0 7.5-3.358 7.5-7.5v-414.5h15z"/></svg>